<svg width="36" height="36" viewBox="0 0 36 36" fill="none" xmlns="http://www.w3.org/2000/svg">
<rect x="36" width="36" height="36" rx="18" transform="rotate(90 36 0)" fill="white"/>
<path d="M19.68 24.07C19.68 23.88 19.75 23.69 19.9 23.54L25.44 18L19.9 12.46C19.61 12.17 19.61 11.69 19.9 11.4C20.19 11.11 20.67 11.11 20.96 11.4L27.03 17.47C27.32 17.76 27.32 18.24 27.03 18.53L20.96 24.6C20.67 24.89 20.19 24.89 19.9 24.6C19.75 24.46 19.68 24.26 19.68 24.07Z" fill="#0A2540"/>
<path d="M8.75 18C8.75 17.59 9.09 17.25 9.5 17.25L26.33 17.25C26.74 17.25 27.08 17.59 27.08 18C27.08 18.41 26.74 18.75 26.33 18.75L9.5 18.75C9.09 18.75 8.75 18.41 8.75 18Z" fill="#0A2540"/>
</svg>
