<svg width="14" height="14" viewBox="0 0 14 14" fill="none" xmlns="http://www.w3.org/2000/svg">
<path d="M8.80224 1.94261C8.91307 1.94261 9.02391 1.98344 9.11141 2.07094C9.28057 2.24011 9.28057 2.52011 9.11141 2.68928L5.30807 6.49261C5.02807 6.77261 5.02807 7.22761 5.30807 7.50761L9.11141 11.3109C9.28057 11.4801 9.28057 11.7601 9.11141 11.9293C8.94224 12.0984 8.66224 12.0984 8.49307 11.9293L4.68974 8.12594C4.39224 7.82844 4.22307 7.42594 4.22307 7.00011C4.22307 6.57428 4.38641 6.17178 4.68974 5.87428L8.49307 2.07094C8.58057 1.98928 8.69141 1.94261 8.80224 1.94261Z" fill="#4475F2"/>
</svg>
