<svg width="16" height="16" viewBox="0 0 16 16" fill="none" xmlns="http://www.w3.org/2000/svg">
<path d="M7.99989 8.86666C7.91322 8.86666 7.82655 8.84667 7.74655 8.80001L1.85989 5.39335C1.61989 5.25335 1.53988 4.94666 1.67988 4.70666C1.81988 4.46666 2.11988 4.38665 2.36654 4.52665L7.99989 7.78666L13.5999 4.54667C13.8399 4.40667 14.1465 4.49335 14.2865 4.72668C14.4265 4.96668 14.3399 5.27333 14.1066 5.41333L8.25989 8.80001C8.17323 8.84001 8.08655 8.86666 7.99989 8.86666Z" fill="#4475F2"/>
<path d="M8 14.9067C7.72667 14.9067 7.5 14.68 7.5 14.4067V8.36002C7.5 8.08668 7.72667 7.86002 8 7.86002C8.27333 7.86002 8.5 8.08668 8.5 8.36002V14.4067C8.5 14.68 8.27333 14.9067 8 14.9067Z" fill="#4475F2"/>
<path d="M8.00007 15.1667C7.4134 15.1667 6.8334 15.04 6.3734 14.7867L2.81341 12.8067C1.84674 12.2734 1.09341 10.9867 1.09341 9.88001V6.11333C1.09341 5.00666 1.84674 3.72669 2.81341 3.18669L6.3734 1.21334C7.28674 0.706677 8.71341 0.706677 9.62674 1.21334L13.1867 3.19332C14.1534 3.72666 14.9067 5.01333 14.9067 6.12V9.88668C14.9067 10.9934 14.1534 12.2733 13.1867 12.8133L9.62674 14.7867C9.16674 15.04 8.58674 15.1667 8.00007 15.1667ZM8.00007 1.83334C7.58007 1.83334 7.16674 1.92001 6.86008 2.08668L3.30008 4.06666C2.66008 4.42666 2.09341 5.38 2.09341 6.12V9.88668C2.09341 10.62 2.66008 11.58 3.30008 11.94L6.86008 13.92C7.46674 14.26 8.5334 14.26 9.14007 13.92L12.7001 11.94C13.3401 11.58 13.9067 10.6267 13.9067 9.88668V6.12C13.9067 5.38667 13.3401 4.42666 12.7001 4.06666L9.14007 2.08668C8.8334 1.92001 8.42007 1.83334 8.00007 1.83334Z" fill="#4475F2"/>
<path d="M11.3334 9.32671C11.0601 9.32671 10.8334 9.10004 10.8334 8.82671V6.68006L4.75345 3.17339C4.51345 3.03339 4.43343 2.72671 4.57343 2.49337C4.71343 2.25337 5.01345 2.17336 5.25345 2.31336L11.5801 5.96672C11.7334 6.05339 11.8334 6.22003 11.8334 6.40003V8.84006C11.8334 9.10006 11.6068 9.32671 11.3334 9.32671Z" fill="#4475F2"/>
</svg>
