<svg width="36" height="36" viewBox="0 0 36 36" fill="none" xmlns="http://www.w3.org/2000/svg">
<rect width="36" height="36" rx="18" transform="matrix(4.37114e-08 1 1 -4.37114e-08 0 0)" fill="white"/>
<path d="M16.32 24.07C16.32 23.88 16.25 23.69 16.1 23.54L10.56 18L16.1 12.46C16.39 12.17 16.39 11.69 16.1 11.4C15.81 11.11 15.33 11.11 15.04 11.4L8.97 17.47C8.68 17.76 8.68 18.24 8.97 18.53L15.04 24.6C15.33 24.89 15.81 24.89 16.1 24.6C16.25 24.46 16.32 24.26 16.32 24.07Z" fill="#4475F2"/>
<path d="M27.25 18C27.25 17.59 26.91 17.25 26.5 17.25L9.66998 17.25C9.25998 17.25 8.91998 17.59 8.91998 18C8.91998 18.41 9.25998 18.75 9.66998 18.75L26.5 18.75C26.91 18.75 27.25 18.41 27.25 18Z" fill="#4475F2"/>
</svg>
