<svg width="48" height="48" viewBox="0 0 48 48" fill="none" xmlns="http://www.w3.org/2000/svg">
<rect width="48" height="48" rx="24" fill="white"/>
<path d="M31.3084 30.2751C31.3084 30.5751 31.2417 30.8834 31.1 31.1834C30.9584 31.4834 30.775 31.7667 30.5334 32.0334C30.125 32.4834 29.675 32.8084 29.1667 33.0167C28.6667 33.2251 28.125 33.3334 27.5417 33.3334C26.6917 33.3334 25.7834 33.1334 24.825 32.7251C23.8667 32.3167 22.9084 31.7667 21.9584 31.0751C21 30.3751 20.0917 29.6001 19.225 28.7417C18.3667 27.8751 17.5917 26.9667 16.9 26.0167C16.2167 25.0667 15.6667 24.1167 15.2667 23.1751C14.8667 22.2251 14.6667 21.3167 14.6667 20.4501C14.6667 19.8834 14.7667 19.3417 14.9667 18.8417C15.1667 18.3334 15.4834 17.8667 15.925 17.4501C16.4584 16.9251 17.0417 16.6667 17.6584 16.6667C17.8917 16.6667 18.125 16.7167 18.3334 16.8167C18.55 16.9167 18.7417 17.0667 18.8917 17.2834L20.825 20.0084C20.975 20.2167 21.0834 20.4084 21.1584 20.5917C21.2334 20.7667 21.275 20.9417 21.275 21.1001C21.275 21.3001 21.2167 21.5001 21.1 21.6917C20.9917 21.8834 20.8334 22.0834 20.6334 22.2834L20 22.9417C19.9084 23.0334 19.8667 23.1417 19.8667 23.2751C19.8667 23.3417 19.875 23.4001 19.8917 23.4667C19.9167 23.5334 19.9417 23.5834 19.9584 23.6334C20.1084 23.9084 20.3667 24.2667 20.7334 24.7001C21.1084 25.1334 21.5084 25.5751 21.9417 26.0167C22.3917 26.4584 22.825 26.8667 23.2667 27.2417C23.7 27.6084 24.0584 27.8584 24.3417 28.0084C24.3834 28.0251 24.4334 28.0501 24.4917 28.0751C24.5584 28.1001 24.625 28.1084 24.7 28.1084C24.8417 28.1084 24.95 28.0584 25.0417 27.9667L25.675 27.3417C25.8834 27.1334 26.0834 26.9751 26.275 26.8751C26.4667 26.7584 26.6584 26.7001 26.8667 26.7001C27.025 26.7001 27.1917 26.7334 27.375 26.8084C27.5584 26.8834 27.75 26.9917 27.9584 27.1334L30.7167 29.0917C30.9334 29.2417 31.0834 29.4167 31.175 29.6251C31.2584 29.8334 31.3084 30.0417 31.3084 30.2751Z" stroke="#4475F2" stroke-width="1.2" stroke-miterlimit="10"/>
<path d="M28.4167 22.5002C28.4167 22.0002 28.0251 21.2335 27.4417 20.6085C26.9084 20.0335 26.2001 19.5835 25.5001 19.5835" stroke="#4475F2" stroke-width="1.2" stroke-linecap="round" stroke-linejoin="round"/>
<path d="M31.3334 22.5001C31.3334 19.2751 28.7251 16.6667 25.5001 16.6667" stroke="#4475F2" stroke-width="1.2" stroke-linecap="round" stroke-linejoin="round"/>
</svg>
