<svg width="355" height="472" viewBox="0 0 355 472" fill="none" xmlns="http://www.w3.org/2000/svg">
<path d="M285.248 0L271.702 23.4628L258.507 0.625562L258.391 0.417041H231.258L231.016 0L230.782 0.417041H203.733L190.388 23.4544L177.193 0.600541L177.076 0.39202H149.009L162.921 24.4887L163.046 24.6972H189.67H217.254L229.89 46.5835C229.685 46.7921 229.538 47.051 229.464 47.3342H176.609L163.063 70.797H135.964L123.086 93.1087C122.944 93.0718 122.798 93.0522 122.652 93.0503C122.508 93.0533 122.366 93.0729 122.227 93.1087L109.465 71.0055L109.348 70.797H82.7911L95.8111 48.2267H150.485L137.365 25.5063C137.673 25.1956 137.847 24.7762 137.849 24.3385C137.849 23.8961 137.673 23.4718 137.36 23.159C137.047 22.8461 136.623 22.6704 136.181 22.6704C135.822 22.6768 135.475 22.7987 135.191 23.0181C134.907 23.2375 134.701 23.5426 134.604 23.8881H82.2906L68.8369 0.600541L68.7201 0.39202H40.6532L54.2237 23.8965L68.0111 47.7846L54.2237 71.6727H81.7901L95.2022 94.9353L95.3274 95.1438H121.084C121.181 95.4894 121.386 95.7945 121.67 96.0138C121.954 96.2332 122.301 96.3552 122.66 96.3616C123.02 96.357 123.369 96.2358 123.655 96.0163C123.941 95.7968 124.148 95.4907 124.245 95.1438H150.001L163.555 71.6727H190.171L203.233 94.3097H176.617L163.072 117.781H162.588L162.83 118.198L162.588 118.615H163.063L176.492 141.869L176.617 142.078H204.676L191.555 119.357C191.865 119.05 192.041 118.634 192.048 118.198C192.044 117.759 191.867 117.34 191.555 117.03L204.192 95.1438H258.874L245.087 71.2557L258.432 48.21L271.777 25.1559L284.839 47.793L284.606 48.21H285.081L285.323 48.627L285.565 48.21H312.664L326.21 24.7389H351.491C351.588 25.0844 351.793 25.3895 352.077 25.6089C352.361 25.8283 352.708 25.9502 353.067 25.9567C353.51 25.9567 353.934 25.7809 354.247 25.4681C354.56 25.1552 354.735 24.7309 354.735 24.2885C354.735 23.8461 354.56 23.4218 354.247 23.1089C353.934 22.7961 353.51 22.6203 353.067 22.6203C352.923 22.6208 352.779 22.6433 352.642 22.6871L339.88 0.583868L339.764 0.375347H311.697L325.251 23.8381H299.11L285.248 0ZM163.547 23.8631L150.485 1.2261H176.617L189.679 23.8631H163.547ZM257.948 1.25112L271.019 23.8798H244.887L231.817 1.25112H257.948ZM230.374 1.25112L217.304 23.8798H191.172L204.233 1.25112H230.374ZM218.029 24.2968L231.091 1.66817L237.03 11.9441L244.161 24.2968L231.525 46.1915C231.383 46.1524 231.238 46.13 231.091 46.1248C230.947 46.1307 230.804 46.1531 230.666 46.1915L218.029 24.2968ZM204.2 48.2267H229.473C229.548 48.5069 229.694 48.7628 229.898 48.969L223.801 59.5452L217.262 70.8553H191.13L197.669 59.5452L204.2 48.2267ZM95.8111 47.3926L82.741 24.7556H108.873L121.943 47.3926H95.8111ZM149.034 47.3926H122.902L109.84 24.7556H134.638C134.733 25.1027 134.938 25.4096 135.222 25.6306C135.506 25.8516 135.854 25.9747 136.214 25.9817C136.358 25.9812 136.502 25.9587 136.639 25.915L149.034 47.3926ZM55.1662 23.8631L42.1045 1.2261H68.2363L81.3064 23.8631H55.1662ZM81.7818 24.6972L94.8436 47.3926H68.7117L55.6417 24.7556L81.7818 24.6972ZM55.6417 70.8053L68.7117 48.2267H94.8436L81.7901 70.8136H81.2981L55.6417 70.8053ZM82.741 71.6394H108.873L121.509 93.534C121.305 93.7403 121.159 93.9962 121.084 94.2764H95.8111L82.741 71.6394ZM149.518 94.2847H124.245C124.167 94.0056 124.021 93.7504 123.82 93.5424L136.456 71.6477H162.588L149.518 94.2847ZM177.101 48.2267H203.233L196.702 59.5452L190.171 70.8553H164.039L177.101 48.2267ZM203.233 141.26H177.101L164.031 118.632H188.828C188.925 118.977 189.13 119.282 189.414 119.502C189.698 119.721 190.046 119.843 190.404 119.849C190.549 119.849 190.692 119.826 190.83 119.783L203.233 141.26ZM188.828 117.798H164.031L177.101 95.1605H203.233L190.83 116.621C190.692 116.578 190.549 116.555 190.404 116.555C190.048 116.56 189.702 116.68 189.419 116.896C189.135 117.112 188.928 117.413 188.828 117.756V117.798ZM204.2 94.3264L191.13 71.6894H217.262L230.332 94.3264H204.2ZM231.291 94.3264L218.229 71.6894H244.361L257.431 94.3264H231.291ZM244.361 70.8553H218.229L224.76 59.5452L230.599 49.3861C230.738 49.4218 230.881 49.4414 231.024 49.4444C231.383 49.438 231.73 49.316 232.014 49.0967C232.298 48.8773 232.504 48.5722 232.601 48.2267H257.406L244.361 70.8553ZM232.626 47.3926C232.553 47.1132 232.41 46.8574 232.209 46.6502L244.845 24.7556H270.977L257.948 47.3926H232.626ZM272.42 24.7556L272.178 24.3385L272.42 23.9215L285.248 1.70989L298.318 24.3385L285.248 46.9755L272.42 24.7556ZM285.974 47.3926L299.035 24.7556H325.176L312.105 47.3926H285.974ZM313.073 1.29284H339.205L351.841 23.1792C351.637 23.3854 351.491 23.6413 351.416 23.9215H326.135L313.073 1.29284ZM149.76 139.976C149.616 139.978 149.473 139.997 149.334 140.034L136.573 117.939L136.456 117.731H82.2906L69.7293 95.9696C69.9414 95.8196 70.1143 95.6208 70.2333 95.39C70.3523 95.1592 70.414 94.9031 70.4133 94.6434C70.4133 94.201 70.2375 93.7766 69.9247 93.4638C69.6118 93.151 69.1875 92.9752 68.7451 92.9752C68.3852 92.9822 68.0373 93.1053 67.7531 93.3263C67.469 93.5473 67.264 93.8542 67.1687 94.2013H40.6532L54.207 117.664H27.5915L13.5622 142.019H41.6208L54.916 118.99L67.9861 141.644L55.3497 163.53C55.2109 163.493 55.068 163.474 54.9244 163.472C54.482 163.472 54.0576 163.648 53.7448 163.96C53.4319 164.273 53.2562 164.698 53.2562 165.14C53.2562 165.582 53.4319 166.007 53.7448 166.32C54.0576 166.632 54.482 166.808 54.9244 166.808C55.2832 166.802 55.6303 166.68 55.9143 166.46C56.1983 166.241 56.4039 165.936 56.5008 165.59H108.873L122.218 188.636L109.115 211.206L95.9279 188.353L95.8111 188.144H68.7117L68.4699 187.727L68.228 188.144H41.6124L28.1837 164.89L28.0669 164.681H0L13.9125 188.77L14.0293 188.978H40.6448L27.5831 211.623H27.0993L27.3413 212.041L13.5622 235.895H39.8108C39.8818 236.177 40.029 236.434 40.2361 236.638L27.5831 258.557H0.00834897L13.5622 282.028L27.4747 306.117L27.5915 306.325H54.207L41.1286 328.962H40.6448L40.8868 329.379L40.6448 329.796H41.1286L54.4739 352.842L40.6782 376.73H68.2614L81.2897 399.376H54.6741L40.6448 423.672L27.0993 447.143H54.6741L67.3188 469.03C67.0776 469.26 66.9107 469.557 66.8398 469.883C66.769 470.208 66.7973 470.548 66.9211 470.857C67.045 471.167 67.2588 471.432 67.5348 471.619C67.8108 471.806 68.1366 471.905 68.4699 471.905C68.8032 471.905 69.1289 471.806 69.4049 471.619C69.681 471.432 69.8947 471.167 70.0186 470.857C70.1424 470.548 70.1707 470.208 70.0999 469.883C70.029 469.557 69.8622 469.26 69.6209 469.03L82.2572 447.143H109.84L95.9279 423.047L95.8027 422.838H69.1872L82.2572 400.21H109.832L96.7119 377.489C96.9171 377.281 97.0638 377.022 97.1373 376.738H122.902L136.931 352.442H109.832L123.386 328.971H95.3023L82.0154 352.008L68.9536 329.379L82.741 305.491H55.1579L42.0962 282.862H95.3023L108.731 306.117L108.856 306.325H136.915L123.82 283.605C123.973 283.454 124.095 283.273 124.179 283.074C124.262 282.875 124.304 282.661 124.303 282.445C124.261 282.075 124.096 281.73 123.835 281.465C123.573 281.199 123.23 281.029 122.861 280.981C122.491 280.933 122.117 281.01 121.796 281.2C121.475 281.39 121.228 281.681 121.092 282.028H95.8111L82.3824 258.766L82.2572 258.557H55.6417L68.7117 235.895H93.9928C94.0896 236.241 94.2953 236.546 94.5793 236.765C94.8633 236.985 95.2104 237.107 95.5692 237.113C95.7136 237.113 95.857 237.09 95.9946 237.046L108.756 259.15L108.873 259.358H136.931L123.144 235.478L136.698 212.007L123.144 188.536L136.698 165.073L123.353 142.019H148.15C148.245 142.366 148.45 142.673 148.734 142.894C149.018 143.115 149.366 143.238 149.726 143.245C150.169 143.245 150.593 143.07 150.906 142.757C151.219 142.444 151.394 142.02 151.394 141.577C151.377 141.152 151.199 140.75 150.895 140.452C150.591 140.154 150.185 139.984 149.76 139.976ZM135.972 118.565L148.609 140.451C148.405 140.657 148.258 140.913 148.183 141.194H122.902L122.669 140.777L109.84 118.565H135.972ZM82.741 164.665L95.8111 142.028H121.943L108.873 164.665H82.741ZM95.8111 141.194L82.741 118.565H108.873L121.943 141.194H95.8111ZM81.7818 118.565L94.8436 141.194H68.7117L55.6417 118.565H81.7818ZM42.1045 95.0604H67.202C67.2989 95.4059 67.5046 95.7111 67.7886 95.9304C68.0725 96.1498 68.4197 96.2718 68.7785 96.2782H68.9286L81.3064 117.706H55.1662L42.1045 95.0604ZM15.0051 141.16L28.0669 118.523H54.207L41.137 141.16H15.0051ZM56.5008 164.665C56.4248 164.382 56.2784 164.124 56.0754 163.914L68.7117 142.028H94.8436L81.7735 164.665H56.5008ZM81.5232 212.016L68.4699 234.678L62.5312 224.393L55.3998 212.041L68.4699 189.404L74.4502 199.688L81.5232 212.016ZM42.9469 235.061C42.8761 234.777 42.729 234.517 42.5215 234.311L54.916 212.875L67.7776 235.061H42.9469ZM54.1987 212.458L41.7959 233.935C41.6583 233.891 41.5149 233.869 41.3705 233.868C41.2262 233.869 41.0827 233.891 40.9451 233.935L28.5757 212.458H54.1987ZM82.2572 212.458H108.397L95.9946 233.935C95.8569 233.892 95.7135 233.87 95.5692 233.868C95.2093 233.875 94.8614 233.999 94.5773 234.22C94.2931 234.441 94.0881 234.747 93.9928 235.095H69.1872L82.2572 212.458ZM97.1456 235.061C97.0721 234.778 96.9254 234.519 96.7203 234.311L109.115 212.841L121.943 235.061H97.1456ZM95.3023 188.986L108.397 211.623H82.2572L69.1872 188.986H95.3023ZM14.488 188.152L1.4263 165.524H27.5581L40.6198 188.152H14.488ZM41.5874 188.986H67.7776L54.6741 211.623H28.5757L41.5874 188.986ZM27.825 212.875L40.2528 234.344C40.0436 234.549 39.8963 234.809 39.8274 235.095H14.9968L27.825 212.875ZM1.4513 259.391H27.5831L40.6532 282.028H14.5214L1.4513 259.391ZM42.0962 329.796H68.228L81.2897 352.433H55.1579L42.0962 329.796ZM42.0962 375.896L55.1579 353.267H81.2897L74.7588 364.578L68.228 375.896H42.0962ZM108.389 353.267L101.858 364.578L96.0196 374.737C95.8778 374.7 95.7323 374.681 95.5859 374.678C95.2271 374.685 94.8799 374.807 94.596 375.026C94.312 375.245 94.1063 375.551 94.0095 375.896H69.1872L75.7264 364.578L82.2572 353.267H108.389ZM81.2897 400.21L68.228 422.838H42.0878L55.1579 400.21H81.2897ZM28.5757 446.301L41.6457 423.664H67.7776L54.7075 446.301H28.5757ZM68.0361 468.604L55.3998 446.71L68.4699 424.073L74.4002 434.407L81.5316 446.76L68.8953 468.604C68.7577 468.561 68.6142 468.538 68.4699 468.538C68.3228 468.539 68.1767 468.561 68.0361 468.604ZM95.3023 423.664L108.364 446.301H82.2572L69.1872 423.664H95.3023ZM108.389 399.376H82.2572L69.1872 376.738H93.9844C94.0813 377.084 94.287 377.389 94.571 377.609C94.8549 377.828 95.2021 377.95 95.5609 377.956C95.7072 377.954 95.8528 377.934 95.9946 377.898L108.389 399.376ZM135.488 353.276L122.418 375.904H97.1373C97.0648 375.625 96.9211 375.369 96.7203 375.162L102.817 364.586L109.357 353.276H135.488ZM121.935 329.805L108.873 352.442H82.741L95.8027 329.805H121.935ZM81.2981 306.325L68.228 328.962H42.0962L55.1579 306.325H81.2981ZM54.1987 305.491H28.0669L14.9968 282.862H41.1286L54.1987 305.491ZM28.5757 259.391H54.6825L67.7776 282.028H41.6208L28.5757 259.391ZM135.522 305.491H109.382L96.2949 282.862H121.092C121.189 283.208 121.395 283.513 121.679 283.733C121.963 283.952 122.31 284.074 122.669 284.08C122.813 284.08 122.956 284.057 123.094 284.014L135.522 305.491ZM81.7735 259.391L94.8436 282.028H68.7117L55.6417 259.391H81.7735ZM28.5423 258.557L40.9451 237.08C41.0827 237.123 41.2262 237.146 41.3705 237.146C41.7337 237.138 42.0841 237.011 42.3686 236.785C42.6532 236.56 42.8562 236.247 42.9469 235.895H67.7776L54.6825 258.557H28.5423ZM109.357 258.557L96.7203 236.671C96.9242 236.465 97.0708 236.209 97.1456 235.929H122.427L135.488 258.557H109.357ZM135.73 212.041L122.669 234.678L109.84 212.458L109.598 212.041L109.84 211.623L122.669 189.404L135.73 212.041ZM122.669 187.735L109.598 165.107L122.669 142.478L135.73 165.115L122.669 187.735Z" fill="white"/>
</svg>
